<?xml version="1.0" ?><svg id="Layer_1" style="enable-background:new 0 0 256 256;" version="1.1" viewBox="0 0 256 256" xml:space="preserve" xmlns="http://www.w3.org/2000/svg" xmlns:xlink="http://www.w3.org/1999/xlink"><style type="text/css">
	.st0{fill:none;stroke:#000000;stroke-width:8;stroke-linejoin:round;stroke-miterlimit:10;}
	.st1{fill:none;stroke:#000000;stroke-width:8;stroke-miterlimit:10;}
	.st2{fill:none;stroke:#000000;stroke-width:8;stroke-miterlimit:10;stroke-dasharray:16,16;}
	.st3{fill:none;stroke:#000000;stroke-width:8;stroke-linecap:round;stroke-linejoin:round;stroke-miterlimit:10;}
</style><g><g><path class="st0" d="M168.427,86.593c-12.223,23.525-40.955,42.393-68.646,28.006c-27.69-14.387-28.768-48.744-16.546-72.269    s40.955-42.393,68.646-28.006S180.65,63.068,168.427,86.593z"/><line class="st0" x1="100.663" x2="68.013" y1="113.722" y2="176.563"/><polygon class="st0" points="43.438,247.363 23.433,236.968 54.014,178.109 70.039,171.715 74.02,188.503   "/><g><line class="st0" x1="132.461" x2="84.264" y1="8.637" y2="101.401"/><line class="st0" x1="165.378" x2="117.18" y1="25.74" y2="118.504"/></g><g><line class="st0" x1="173.769" x2="95.967" y1="68.102" y2="27.678"/><line class="st0" x1="155.112" x2="77.31" y1="104.01" y2="63.587"/></g></g><g><path class="st0" d="M166.849,178.675L166.849,178.675c-6.873-4.9-8.472-14.443-3.573-21.316l6.025-8.451l24.888,17.743    l-6.025,8.451C183.265,181.975,173.722,183.574,166.849,178.675z"/><path class="st0" d="M194.12,166.601l-24.748-17.643l17.533-46.717l0.435-0.147c7.026-2.379,14.196,3.199,13.619,10.594    l-0.206,2.637l2.545-1.145c6.272-2.821,13.26,2.161,12.638,9.01l-0.252,2.78l2.425-1.054c6.803-2.957,14.414,2.002,14.456,9.42    l0.003,0.459L194.12,166.601z"/><line class="st0" x1="200.715" x2="177.756" y1="115.376" y2="155.013"/><line class="st0" x1="185.662" x2="215.647" y1="160.649" y2="126.021"/><line class="st0" x1="215.647" x2="185.662" y1="126.021" y2="160.649"/></g></g></svg>