<?xml version="1.0" ?><svg id="Layer_1_1_" style="enable-background:new 0 0 64 64;" version="1.1" viewBox="0 0 64 64" xml:space="preserve" xmlns="http://www.w3.org/2000/svg" xmlns:xlink="http://www.w3.org/1999/xlink"><g><path d="M32,1C14.906,1,1,14.906,1,32s13.906,31,31,31s31-13.906,31-31S49.094,1,32,1z M32,61C16.01,61,3,47.99,3,32S16.01,3,32,3   s29,13.01,29,29S47.99,61,32,61z"/><path d="M57.35,34.695l-7.596-11.816C48.997,21.702,47.71,21,46.312,21h-0.22c-0.031,0-0.061,0.009-0.092,0.009V19   c0-2.206-1.794-4-4-4s-4,1.794-4,4v12c0,2.206,1.794,4,4,4c1.786,0,3.284-1.183,3.796-2.801l4.45,6.922   C51.003,40.298,52.29,41,53.688,41h0.22C56.164,41,58,39.164,58,36.908C58,36.122,57.775,35.356,57.35,34.695z M44,31   c0,1.103-0.897,2-2,2s-2-0.897-2-2V19c0-1.103,0.897-2,2-2s2,0.897,2,2v2.594c-1.192,0.716-2,2.009-2,3.497   c0,0.786,0.225,1.552,0.65,2.213l1.35,2.1V31z M53.908,39h-0.22c-0.715,0-1.373-0.359-1.761-0.961l-7.596-11.816   C44.115,25.885,44,25.494,44,25.092C44,23.938,44.938,23,46.092,23h0.22c0.715,0,1.373,0.359,1.761,0.961l7.596,11.816   C55.885,36.115,56,36.506,56,36.908C56,38.062,55.062,39,53.908,39z"/><path d="M28.344,31.769C28.775,31.919,29.23,32,29.688,32h0.22C32.164,32,34,30.164,34,27.908c0-0.786-0.225-1.552-0.65-2.213   l-7.596-11.816C24.997,12.702,23.71,12,22.312,12h-0.22C19.836,12,18,13.836,18,16.092c0,0.786,0.225,1.552,0.65,2.213l2.376,3.696   C21.018,22.001,21.009,22,21,22c-2.263,0-4.365,0.82-5.876,2.258C14.446,24.095,13.736,24,13,24c-4.411,0-8,3.141-8,7   c0,2.065,1.034,3.918,2.665,5.201C7.228,37.078,7,38.031,7,39c0,3.859,3.589,7,8,7s8-3.141,8-7c0-1.09-0.298-2.138-0.828-3.084   C24.948,35.557,27.265,33.953,28.344,31.769z M20.332,17.223C20.115,16.885,20,16.494,20,16.092C20,14.938,20.938,14,22.092,14   h0.22c0.715,0,1.373,0.359,1.761,0.961l7.596,11.816C31.885,27.115,32,27.506,32,27.908C32,29.062,31.062,30,29.908,30h-0.22   c-0.259,0-0.514-0.054-0.754-0.147C28.974,29.573,29,29.289,29,29c0-3.041-2.232-5.628-5.334-6.592L20.332,17.223z M21,24   c3.309,0,6,2.243,6,5s-2.691,5-6,5c-0.149,0-0.295-0.012-0.442-0.021c-0.075-0.064-0.146-0.13-0.224-0.191   C20.76,32.933,21,31.991,21,31c0-2.483-1.49-4.663-3.724-5.906C18.328,24.399,19.639,24,21,24z M13,26c3.309,0,6,2.243,6,5   s-2.691,5-6,5s-6-2.243-6-5S9.691,26,13,26z M15,44c-3.309,0-6-2.243-6-5c0-0.605,0.141-1.199,0.395-1.759   C10.48,37.722,11.703,38,13,38c2.49,0,4.717-1.001,6.185-2.567C20.331,36.368,21,37.647,21,39C21,41.757,18.309,44,15,44z"/><path d="M39,39c-4.042,0-7.385,2.639-7.917,6.05C27.103,45.45,24,48.412,24,52c0,3.859,3.589,7,8,7c4.042,0,7.385-2.639,7.917-6.05   C43.897,52.55,47,49.588,47,46C47,42.141,43.411,39,39,39z M32,57c-3.309,0-6-2.243-6-5s2.691-5,6-5s6,2.243,6,5S35.309,57,32,57z    M39.898,50.938c-0.533-3.04-3.302-5.437-6.791-5.863C33.63,42.759,36.071,41,39,41c3.309,0,6,2.243,6,5   C45,48.502,42.781,50.575,39.898,50.938z"/><path d="M32,13h4c2.206,0,4-1.794,4-4s-1.794-4-4-4h-4c-2.206,0-4,1.794-4,4S29.794,13,32,13z M32,7h4c1.103,0,2,0.897,2,2   s-0.897,2-2,2h-4c-1.103,0-2-0.897-2-2S30.897,7,32,7z"/></g></svg>