<?xml version="1.0" ?><svg enable-background="new 0 0 100 100" id="Layer_1" version="1.1" viewBox="0 0 100 100" xml:space="preserve" xmlns="http://www.w3.org/2000/svg" xmlns:xlink="http://www.w3.org/1999/xlink"><g><path d="M90.7,34.6c-0.2-1.1-0.5-2.3-0.7-3.5c10.6-2.5,8.8-9,8.8-9c-3.4-1.2-8.1,1-8.7,2.8c-0.1,0.4-0.4,0.7-0.6,1.1   c0-0.3,0-0.7,0-1c0,0-0.2-0.1-0.6-0.2c0.7-0.8,1.6-2.3,1.7-5.7c0,0-3.1,3.2-6.2,4.4c-0.7-0.1-1.5-0.2-2.3-0.2l-4.2,0.2   c-0.7,0-1.5,0.1-2.2,0.1c-3.1-1.4-6.1-4.7-6.1-4.7c0,3.3,0.8,5,1.5,5.7c-0.4,0.1-0.6,0.2-0.6,0.2c0,0.3,0,0.6,0,0.9   c-0.4-0.3-0.7-0.5-0.9-0.9c-1-1.5-6.1-2.5-9.1-0.4c0,0-0.1,5.5,9.3,5.8c0,0.1,0-0.3,0-0.3H30c-2.4,0-4.4,1.8-5.2,3.7   c-2.7,2.9-4.5,7.7-5.3,13.4c0,0.2-0.1,0.6-0.1,0.9c0,0.1,0,0.3,0,0.4c0,0.1,0,0.3-0.1,0.5c0,0.1,0,0.2-0.1,0.3c0,0.1,0,0.3-0.1,0.4   c0,0.1,0,0.2-0.1,0.3c0,0.1,0,0.2-0.1,0.3c0,0.1-0.1,0.3-0.1,0.4c0,0.1,0,0.2-0.1,0.3c0,0.1-0.1,0.3-0.1,0.4c0,0.1,0,0.2-0.1,0.2   c0,0.1-0.1,0.3-0.1,0.4c0,0.1,0,0.1,0,0.2c0,0.1-0.1,0.2-0.1,0.3c-0.1,0.2-2.5,7.7-9.4,7.6c-1.6,0-2.9-1.3-3.4-1.9   C5,57.6,5.2,55,5.2,55h0.1c0.9,0,2.6-1.1,2.1-3.8c-0.8-4.2-1.7-4.9-0.5-6.7c0,0-5.7,3.3-5.9,7.3c-0.2,2.9,1.1,3.4,2,3.8l0.1,0   c-0.1,0.5-0.7,2.8,1.1,5.2c1.3,1.8,2.7,2.8,6.8,2.5c3.1-0.3,5.5-1.6,7.3-3c2.6-1.9,4.3-4.8,4.9-8.9c0.6-4.2,1.5-7,2.3-9l2.9,14.2   c0,0.2,0,0.4,0.1,0.5c0,0.1,0,0.1,0,0.2c0.4,4.6-0.7,7.7-0.7,7.8l-0.1,0.2L33.9,81h5l-3.9-12.1c0.4-0.5,0.8-0.8,1.1-1.3   c0.2,0.2,0.5,0.5,0.7,0.8l-0.5,0.7l-0.1,0.1c-0.6,1-0.9,3,0.9,4.3c0.6,0.4,1.2,0.6,1.8,0.6c1.5,0,2.6-1.3,2.7-1.6l1.3-1.7   c0,0,0,0,0,0l0.7,2.5c0.2,0.9,1.1,2.7,3,2.7c0.3,0,0.6,0,0.9-0.1c2.2-0.6,2.6-2.5,2.4-3.7l-0.8-3c0.1-0.1,0.2-0.1,0.3-0.2l1.7,1.8   l0.1,0.1c0.1,0.1,0.9,0.8,2.1,0.8h0c0.6,0,1.5-0.2,2.3-1c0.6-0.6,0.9-1.3,0.9-2.1c0-1.3-1-2.3-1.2-2.5l-2.1-2.1   c0.2-0.6,0.3-1.2,0.4-1.8l14-0.3c0.4,1,0.3,2,2.3,2.8V79h6V63.8c2-1.5,2.3-3.5,3-4.9c0.6-1,1-2.6,1-3.7l0.2-2.2H86   c0.3,0,0.5,0.1,0.7,0.1c5.3,0,10.1-4.1,10.1-9.5C96.9,39.4,94.3,36.1,90.7,34.6z M3,52.2c0-0.3,0-0.7,0.1-1   c0.1-0.4,0.1-0.7,0.2-1.1c0.1-0.3,0.2-0.7,0.3-1c0.1-0.2,0.1-0.3,0.2-0.5C3.9,48.3,4,48.2,4.1,48c0.1-0.3,0.3-0.6,0.5-0.9   c0.2-0.3,0.3-0.5,0.5-0.7c0.3-0.4,0.7-0.7,0.9-1c0.2-0.2,0.4-0.3,0.4-0.3s-0.1,0.1-0.3,0.4c-0.2,0.2-0.5,0.6-0.7,1.1   c-0.2,0.2-0.3,0.5-0.4,0.7c-0.1,0.3-0.3,0.6-0.4,0.9c-0.1,0.2-0.1,0.3-0.2,0.5c-0.1,0.2-0.1,0.3-0.2,0.5c-0.1,0.3-0.2,0.7-0.3,1   c-0.1,0.3-0.1,0.7-0.2,1c0,0.3-0.1,0.7-0.1,1c0,0.3,0,0.6-0.1,0.9c0,0.3,0,0.6,0,0.9c0,0.3,0,0.5,0,0.7c0,0.2,0,0.4,0,0.6   c0,0.1,0,0.1,0,0.2l-0.1,0c0-0.1,0-0.1,0-0.2c0-0.2-0.1-0.3-0.1-0.6c-0.1-0.2-0.1-0.5-0.1-0.7c0-0.3-0.1-0.6-0.1-0.9   C3,52.8,3,52.5,3,52.2z M53.8,67.6L53.8,67.6c0.2,0.2,0.5,0.6,0.5,1c0,0.1,0,0.1-0.2,0.4c-0.3,0.3-0.6,0.3-0.7,0.3c0,0,0,0,0,0   c-0.2,0-0.5-0.1-0.6-0.2l-3.2-3.2l-0.8,0.7c-0.5,0.4-1,0.8-1.5,1.1l-0.8,0.4l1.3,4.6c0,0.2,0,0.8-0.8,1c-0.1,0-0.2,0-0.3,0   c-0.5,0-0.8-0.9-0.8-0.9l-1-3.4l-0.3-0.9l-0.9,0c-0.4,0-0.8,0-1.2-0.1L42,68.5l-2.1,2.7l0,0.1c-0.1,0.1-0.5,0.6-0.9,0.6   c-0.1,0-0.2-0.1-0.4-0.2c-0.5-0.4-0.6-0.8-0.3-1.2l1.9-2.5l-1-0.7c-0.7-0.4-1.2-1-1.7-1.6c0.6-1.2,1-2.3,1.3-3.2l12.7-0.3   c-0.1,0.5-0.3,1-0.5,1.5l-0.3,0.7L53.8,67.6z M65.7,39.3C65.7,39.3,65.6,39.3,65.7,39.3c-0.1,0.3-0.2,0.5-0.3,0.7c0,0,0,0.1,0,0.1   c-0.1,0.2-0.1,0.4-0.2,0.6c0,0,0,0,0,0.1c-0.1,0.2-0.1,0.4-0.2,0.6c0,0,0,0.1,0,0.1c0,0.2-0.1,0.4-0.1,0.6c0,0,0,0,0,0.1   c0,0.2-0.1,0.4-0.1,0.7c0,0.1,0,0.1,0,0.2c0,0.2,0,0.5,0,0.7c0,0.3,0,0.5,0,0.8c0,0,0,0.1,0,0.1c0,0.3,0.1,0.5,0.1,0.8v0   c-1,1.2-2.3,1.9-4.1,1.9c-2.5,0-4.7-1.4-5.8-3.4c-1.2,1.4-3,2.3-5,2.3c-3.6,0-6.6-2.9-6.6-6.6c0-0.4,0-0.8,0.1-1.1   c-0.5,0.2-1.1,0.5-1.7,0.5c-3,0-5.4-3.9-5.7-4.9h33.2c-0.2,0-0.4,1.3-0.6,2C67,36.6,66,38.6,66,38.6C66,38.6,65.8,39.1,65.7,39.3z    M86.2,52h-5.9h-5.6c-4,0-8-4.1-8-8.4c0-4.1,3.4-7.4,7.6-7.4c0.2,0,0.5,0,0.7,0.1c0.1,0,0.1,0,0.2,0c0.2,0,0.4,0.1,0.6,0.1   c0,0,0,0,0.1,0c0.2,0.1,0.5,0.1,0.7,0.2c0,0,0,0,0,0c0.2,0.1,0.4,0.2,0.7,0.2c0,0,0.1,0,0.1,0c0.9,0.4,1.8,1,2.5,1.8l0.8,0.9   l0.8-0.9c1.4-1.5,3.4-2.4,5.5-2.4c4.1,0,7.5,3.4,7.5,7.7C94.6,43.9,94.7,52,86.2,52z"/><circle cx="74.3" cy="42.4" r="2.4"/><circle cx="87.7" cy="42.4" r="2.4"/></g></svg>