<?xml version="1.0" ?><svg viewBox="0 0 512 512" xmlns="http://www.w3.org/2000/svg"><g id="Vaccine_researching"><path d="M331.8537,382.386a64.0471,64.0471,0,0,1-100.3174-51.835,6,6,0,0,0-5.9975-5.9131c-.03,0-.06,0-.0889.001a6,6,0,0,0-5.9126,6.086,75.953,75.953,0,0,0,119.1279,61.54,6,6,0,1,0-6.8115-9.8789Z"/><path d="M433.2892,465.4729l-56.093-69.3395a107.2988,107.2988,0,0,0-80.4723-175.4151l24.4989-44.8321,15.2344,8.1648a6,6,0,1,0,5.668-10.5761l-36.5462-19.587,36.4-66.6093,36.5166,19.7881a6,6,0,1,0,5.7168-10.5508L228.6769,12.2327A6,6,0,0,0,222.96,22.7835l37.6427,20.3981-36.3411,66.502L186.6232,89.2092a6,6,0,1,0-5.7343,10.541l16.2915,8.8622L76.569,329.3235a21.761,21.761,0,0,0,8.65,29.4961l16.6791,9.1147L85.0661,398.7366A16.8132,16.8132,0,0,0,91.758,421.554L97.9,424.91,78.7673,459.9221a6,6,0,1,0,10.53,5.7539L108.43,430.6648l6.1414,3.356a16.82,16.82,0,0,0,22.8188-6.6914l16.8318-30.8016,16.6795,9.115a21.7454,21.7454,0,0,0,29.496-8.6513l4.8876-8.9441q2.6226,3.8781,5.6193,7.5876A107.4793,107.4793,0,0,0,343.81,423.1856l56.1109,69.3605a21.3384,21.3384,0,0,0,14.46,7.8291,21.7182,21.7182,0,0,0,2.2618.1182,21.487,21.487,0,0,0,16.6464-35.0205ZM310.6468,170.218,282.7377,221.29a107.2411,107.2411,0,0,0-15.5293,2.8152l32.617-59.6872ZM198.8189,278.8467a60.7314,60.7314,0,0,1-35.5345.6877,80.5262,80.5262,0,0,0-16.5374-2.98l35.844-65.5925L233.8547,239.24q-3.7082,2.5275-7.26,5.3988A106.7231,106.7231,0,0,0,198.8189,278.8467Zm30.23-152.8989,36.0318,19.6a6,6,0,1,0,5.7343-10.541l-36.0119-19.59L271.08,49.0315l60.1591,32.874L291.885,153.9224l0,0-41.5976,76.1218q-2.2321,1.0013-4.4291,2.1123l-57.5129-31.7255,10.3372-18.9165,24.2586,13.2561a6,6,0,0,0,5.7539-10.5313l-24.2578-13.2556,9.4131-17.2254,12.2641,6.7027a6,6,0,0,0,5.7549-10.53l-12.2644-6.7027Zm-39.1811,265.29a9.7474,9.7474,0,0,1-13.2115,3.875L90.9743,348.29a9.749,9.749,0,0,1-3.875-13.2129l120.6222-220.731,10.7859,5.8672L104.87,328.1633a13.088,13.088,0,0,0,5.209,17.7618l58.249,31.832a13.0951,13.0951,0,0,0,17.7622-5.21l6.128-11.2138a106.38,106.38,0,0,0,5.9979,14.6269Zm30.3535-3.1651a95.3454,95.3454,0,1,1,134.1172,13.9356A95.455,95.455,0,0,1,220.2209,388.0725Z"/><path d="M356.4367,364.8059a5.9969,5.9969,0,0,0,7.9805-2.8828,76.0579,76.0579,0,0,0-136.4781-67.1162,6,6,0,1,0,10.669,5.4922,64.0574,64.0574,0,0,1,114.9458,56.5263A5.9992,5.9992,0,0,0,356.4367,364.8059Z"/><path d="M337.4475,313.2444c-41.32-36.3565-75.004-11.7568-87.5684.5068a19.6358,19.6358,0,0,0-.8345,27.3623h0c9.27,10.1953,24.4082,22.4287,43.88,22.8164q.47.0088.9385.0088c15.23,0,30.2138-7.376,44.5527-21.9365A19.9576,19.9576,0,0,0,344.12,327.346,19.535,19.535,0,0,0,337.4475,313.2444Zm-7.5821,20.3379c-12.2285,12.417-24.5752,18.6191-36.7021,18.35-15.2032-.3018-27.5557-10.44-35.24-18.8906h0a7.774,7.774,0,0,1,.3369-10.7022c7.464-7.2861,17.1412-13.9115,28.6444-15.7314a7.6346,7.6346,0,1,1-7.9464,7.8261,17.0363,17.0363,0,1,0,24.24-7.06c8.1579,2.0263,16.9623,6.6448,26.3212,14.88a7.6429,7.6429,0,0,1,2.6084,5.52A7.8033,7.8033,0,0,1,329.8654,333.5823Z"/></g></svg>